<?xml version="1.0" encoding="UTF-8"?>
<svg width="32" height="32" viewBox="0 0 32 32" fill="none" xmlns="http://www.w3.org/2000/svg">
  <!-- Calculator body -->
  <rect x="6" y="4" width="20" height="24" rx="2" fill="#2563eb"/>
  
  <!-- Calculator screen -->
  <rect x="8" y="6" width="16" height="6" rx="1" fill="#ffffff"/>
  
  <!-- Dollar sign in screen -->
  <path d="M13.5 7.5V10.5M16.5 7.5V10.5M15 7.5C16.1046 7.5 17 8.17157 17 9C17 9.82843 16.1046 10.5 15 10.5C13.8954 10.5 13 9.82843 13 9C13 8.17157 13.8954 7.5 15 7.5Z" stroke="#2563eb" stroke-width="1" stroke-linecap="round"/>
  
  <!-- Calculator buttons -->
  <rect x="8" y="14" width="4" height="3" rx="1" fill="#ffffff"/>
  <rect x="14" y="14" width="4" height="3" rx="1" fill="#ffffff"/>
  <rect x="20" y="14" width="4" height="3" rx="1" fill="#ffffff"/>
  
  <rect x="8" y="19" width="4" height="3" rx="1" fill="#ffffff"/>
  <rect x="14" y="19" width="4" height="3" rx="1" fill="#ffffff"/>
  <rect x="20" y="19" width="4" height="3" rx="1" fill="#ffffff"/>
  
  <rect x="8" y="24" width="4" height="3" rx="1" fill="#ffffff"/>
  <rect x="14" y="24" width="4" height="3" rx="1" fill="#ffffff"/>
  <rect x="20" y="24" width="4" height="3" rx="1" fill="#ffffff"/>
</svg> 